<svg xmlns="http://www.w3.org/2000/svg" width="331" height="76" viewBox="0 0 331 76"><path fill="#e11418" d="M289.651 13.1v6.105h-.602v.086s.172 0 .43.086c.344.172.86.516.946 1.634-.172-.172 4.128.172 4.128.172l2.064 39.389h16.34l.516-48.763s2.752-1.204 16.77.344c.086-.086-17.544-6.45-40.592.946z"/><path fill="#004380" d="M57.535 31.847l-1.634.086s-.258-9.116-7.999-9.116c-4.73 0-7.482 2.838-7.482 6.364.086 5.418 5.848 6.794 9.289 7.482 4.472.86 11.782 1.806 11.18 11.352-.516 8.17-5.848 11.61-11.267 12.127-3.612.344-7.396-.258-11.18-.43-.688 0-1.978.258-1.978.258V47.24h1.806c.086 0 .602 11.61 9.546 11.009 5.677-.43 7.913-4.042 8.085-7.569.172-4.3-1.978-6.966-8.085-8.084-6.45-1.204-11.352-3.612-11.438-10.578-.086-7.826 6.45-11.008 10.75-11.008 4.387 0 6.02.86 7.483.946 1.204.172 2.838.086 2.838.086zm52.546 0s-1.548-9.718-11.868-9.374c-9.89.516-12.04 9.374-12.04 18.662.086 10.578 4.128 17.803 12.642 17.459 4.73-.172 6.966-1.634 6.88-1.634V45.78h-5.16v-1.893h17.372v1.892h-5.504l-.086 13.76h-4.472c-3.268 0-6.02.259-11.008.689-10.32.86-17.63-4.558-17.544-18.92.086-12.385 5.504-20.555 17.974-20.125 2.924.086 6.02.344 8.6.516 3.182.258 5.504.258 5.504.258v9.89h-1.29zm138.204-.086zm0 0c-.002-.011-1.554-9.804-11.868-9.374-9.89.516-12.04 9.374-12.04 18.662.085 10.579 4.127 17.115 12.727 17.287 9.289.172 11.095-9.375 11.095-9.375h1.462v10.493h-3.612c-3.268 0-6.02.516-11.009.688-8.686.258-17.458-4.558-17.372-18.92.086-12.385 6.794-20.555 17.802-20.125 2.925.086 6.02.344 8.6.516 3.183.258 5.505.258 5.505.258v9.89zm-86.26 26.403h12.385c6.106 0 6.45-10.32 6.45-10.32h1.548v11.954h-31.476v-1.634h4.816v-34.83h-4.816v-1.635h16.254v1.634h-5.16zm51.171-36.55v9.631h-1.462c.086 0 0-7.912-5.16-7.912H195.48v15.05h5.332c2.752 0 4.214-2.752 4.214-5.246v-1.29h1.548v14.878h-1.548v-1.892c0-2.494-1.806-4.73-4.3-4.73h-5.246v17.803h12.47c5.848 0 6.536-10.32 6.536-10.32h1.462v12.04h-31.304v-1.72h4.816V23.333h-4.816V21.7zm-68.543 0v9.631h-1.462c.086 0 0-7.912-5.16-7.912h-11.094v15.05h5.332c2.752 0 4.214-2.752 4.214-5.246v-1.29h1.548v14.878h-1.548v-1.892c0-2.494-1.806-4.73-4.3-4.73h-5.246v17.803h12.47c5.849 0 6.537-10.32 6.537-10.32h1.462v12.04H116.1v-1.72h4.816V23.333H116.1V21.7zm-77.228 1.891h-4.988v-1.72h16.34v1.72h-5.16v34.573h5.16v1.634h-16.34v-1.634h4.988zm-38.873-1.892v9.632H27.09c.086 0 0-7.912-5.16-7.912H10.836v15.05h5.332c2.752 0 4.214-2.752 4.214-5.246v-1.29h1.548v14.878h-1.548v-1.892c0-2.494-1.806-4.73-4.3-4.73h-5.246v17.803h12.47c5.848 0 6.536-10.32 6.536-10.32h1.462v12.04H0v-1.72h4.816V23.333H0V21.7z"/><path fill="#e11418" d="M289.05 6.649c0 .172-16.427-7.482-41.453-2.408 0 0 17.114-7.31 41.366-.774"/><path fill="#e11418" d="M288.963 6.649c0 .172 16.426-7.482 41.452-2.408 0 0-17.114-7.31-41.366-.774m-.688 15.653v-6.107c-23.22-7.396-40.85-1.032-40.85-1.032 14.104-1.634 16.856-.344 16.856-.344l.516 48.763h16.426l2.15-39.389s4.3-.344 4.128-.172c.086-1.032.602-1.462.946-1.634.258-.086.43-.086.43-.086v-.086h-.602z"/><path fill="#e11418" d="M289.05 57.562c-2.839 0-5.247-2.322-5.247-5.16 0-2.753 2.838-5.247 5.16-5.247 2.838 0 5.246 2.322 5.246 5.16 0 2.839-2.322 5.16-5.16 5.247zm-1.463-36.379c0-.344.172-.688.43-.946s.602-.43.946-.43c.774 0 1.376.602 1.376 1.376 0 .774-.602 1.376-1.376 1.376a1.358 1.358 0 0 1-1.376-1.376zm1.978 24.94l-.172-22.618a2.4 2.4 0 0 0 1.806-2.322c0-1.29-1.118-2.322-2.408-2.322a2.35 2.35 0 0 0-1.634.688c-.43.43-.688 1.032-.688 1.72 0 1.118.86 2.15 1.892 2.322l.172 22.618c-2.752.258-5.848 3.01-5.848 6.192 0 3.44 2.838 6.193 6.278 6.193 3.44 0 6.192-2.838 6.192-6.278 0-3.269-2.408-5.849-5.59-6.193z"/><path d="M50.31 64.442h-.86l-.687 1.118.516.172zm1.72 10.32l-4.902.086V71.58h4.215v-.688h-4.215v-3.096h4.817v-.774h-5.677v8.514h5.763zm.775-3.612c0-.516.086-1.032.258-1.548.172-.516.43-.946.774-1.376.344-.43.774-.688 1.29-.946s1.118-.344 1.72-.344c.774 0 1.376.172 1.978.516.602.344.946.774 1.204 1.376l-.688.43c-.172-.258-.344-.516-.516-.688a2.613 2.613 0 0 0-.602-.43c-.258-.086-.43-.172-.688-.258-.258-.086-.516-.086-.688-.086-.516 0-.946.086-1.376.344-.43.172-.688.516-1.032.86-.258.344-.43.688-.602 1.118-.172.43-.172.86-.172 1.29 0 .516.086.946.258 1.376.172.43.43.774.688 1.118.258.344.602.602 1.032.774.43.172.774.258 1.29.258.258 0 .516 0 .774-.086l.774-.258c.258-.172.43-.258.688-.516.172-.172.344-.43.516-.688l.688.344a3.089 3.089 0 0 1-.602.86c-.258.258-.516.43-.86.602a4.192 4.192 0 0 1-.946.344c-.344.086-.688.172-1.032.172-.602 0-1.118-.086-1.634-.344a3.808 3.808 0 0 1-1.29-1.032 7.427 7.427 0 0 1-.86-1.376c-.172-.774-.344-1.29-.344-1.806zm9.03.086c0-.516.086-.946.258-1.376.086-.43.258-.86.602-1.118.344-.258.602-.602 1.032-.774.344-.258.774-.344 1.29-.344s.946.086 1.29.258c.43.172.688.43 1.032.774.344.344.516.688.688 1.118.172.43.258.946.258 1.376 0 .43-.172.86-.258 1.29-.086.43-.258.774-.602 1.118-.344.344-.688.602-1.032.86-.344.258-.774.344-1.29.344s-.946-.086-1.29-.258a2.348 2.348 0 0 1-1.032-.774c-.344-.344-.516-.688-.688-1.118a3.895 3.895 0 0 1-.258-1.376zm4.644 3.956c.516-.258.946-.516 1.29-.946.344-.43.688-.86.86-1.376.258-.516.344-1.032.344-1.634a4.87 4.87 0 0 0-.258-1.548c-.172-.516-.43-.946-.774-1.376a3.807 3.807 0 0 0-1.29-1.032c-.516-.258-1.032-.344-1.634-.344-.516 0-1.032.086-1.548.344s-.946.516-1.29.946c-.344.43-.688.86-.86 1.376-.258.516-.344 1.032-.344 1.634 0 .602.086 1.118.258 1.634.258.516.516.946.86 1.376a5.01 5.01 0 0 0 1.29.946c.516.258 1.032.344 1.634.344.602 0 1.118-.086 1.462-.344zm4.128.258v-8.514h.86v7.826h4.902v.774h-5.762zm12.813-.688v.774h-5.76v-8.514h5.676v.774H78.52v3.096h4.214v.688H78.52v3.268l4.902-.086zm10.751-3.612c0 .516-.086 1.032-.258 1.462-.086.43-.344.774-.602 1.118-.258.344-.688.602-1.032.774-.344.172-.86.258-1.376.258h-2.064V67.71h2.064c.516 0 .946.086 1.376.258.43.172.774.344 1.032.688s.43.688.602 1.118c.172.43.258.86.258 1.376zm-6.106 4.472h2.924c.688 0 1.204-.172 1.72-.344s.946-.516 1.29-.86c.43-.43.688-.86.86-1.376a6.112 6.112 0 0 0 .258-1.806c0-.602-.086-1.118-.258-1.634-.172-.516-.43-1.032-.774-1.376-.344-.43-.774-.688-1.29-.946s-1.118-.344-1.806-.344h-2.924v8.514zm8.342-6.45l.172-1.29h-.258v-1.204h.774v1.204l-.344 1.29zm2.494 6.278v-8.514h.86v8.514zm3.87-6.966v6.966h-.86v-8.514h.688l5.676 7.138v-7.138h.86v8.514h-.774zm14.62 5.762c-.774.86-1.72 1.29-2.752 1.29-.602 0-1.118-.086-1.634-.344a5.01 5.01 0 0 1-1.29-.946 7.428 7.428 0 0 1-.86-1.376c-.258-.516-.344-1.032-.344-1.634 0-.602.086-1.118.258-1.634.172-.516.43-.946.86-1.376.344-.43.774-.688 1.29-.946a3.373 3.373 0 0 1 1.548-.344c.43 0 .774.086 1.118.172.344.086.688.258.946.344.258.172.516.344.688.602l.516.774-.688.43a3.037 3.037 0 0 0-1.118-1.204c-.43-.258-.946-.344-1.548-.344-.516 0-.86.086-1.29.344-.43.258-.688.43-.946.774-.258.344-.516.688-.602 1.118a3.565 3.565 0 0 0 0 2.666c.172.43.43.774.688 1.118.258.344.602.602 1.032.774.43.172.774.258 1.29.258s.946-.086 1.376-.344c.43-.258.86-.602 1.29-1.118v-1.376h-1.892v-.688h2.58v4.214h-.688v-1.204zm6.536-9.804h-.86l-.688 1.118.516.172zm1.634 10.32l-4.902.086V71.58h4.214v-.688h-4.214v-3.096h4.816v-.774H119.8v8.514h5.762zm2.494-6.278v6.966h-.86v-8.514h.688l5.676 7.138v-7.138h.86v8.514h-.774zm8.428 6.966v-8.514h.86v8.514zm8.687-.688v.774h-5.763v-8.514h5.677v.774h-4.817v3.096h4.215v.688h-4.215v3.268zm5.074 0c.516 0 .946-.086 1.376-.344.344-.172.602-.516.86-.774.172-.344.344-.688.43-1.118.086-.43.086-.86.086-1.29v-4.3h.86v4.3c0 .602-.086 1.118-.172 1.634-.086.516-.344.946-.602 1.376-.258.43-.688.688-1.118.946-.43.258-1.032.344-1.634.344-.688 0-1.204-.086-1.72-.344a3.105 3.105 0 0 1-1.118-.946c-.258-.43-.516-.86-.602-1.376-.086-.516-.172-1.032-.172-1.548v-4.3h.86v4.3c0 .43.086.86.172 1.29.086.43.258.774.43 1.118.172.344.516.602.86.774.258.172.688.258 1.204.258zm6.45-3.182h-.086v-3.956h2.752c.258 0 .516.086.688.172.172.086.43.258.516.43.086.172.258.344.344.602.086.258.172.516.172.774s0 .516-.086.774c-.086.172-.172.43-.344.602s-.344.344-.516.43a1.62 1.62 0 0 1-.688.172h-2.752zm0 3.87v-3.182h2.494l1.978 3.182h.946l-2.064-3.268c.258-.086.516-.172.774-.344s.516-.344.602-.602c.086-.258.258-.516.344-.774.086-.258.172-.516.172-.86 0-.258-.086-.602-.172-.946s-.344-.602-.516-.86c-.172-.258-.43-.43-.774-.602a2.29 2.29 0 0 0-1.032-.258h-3.612v8.514zm12.04-6.88a3.819 3.819 0 0 0-.946-.688 3.565 3.565 0 0 0-1.376-.258c-.774 0-1.29.172-1.634.43-.344.258-.516.688-.516 1.204 0 .258.086.43.172.602s.258.344.43.43c.172.086.43.258.774.344l1.032.258c.43.086.86.172 1.204.344.344.086.688.258.946.43s.43.43.602.688c.172.258.172.602.172.946 0 .43-.086.774-.258 1.032-.172.258-.344.516-.602.688a3.18 3.18 0 0 1-.946.43 5.076 5.076 0 0 1-1.204.172c-1.29 0-2.494-.43-3.44-1.204l.43-.688c.172.172.344.344.516.43.172.172.43.258.688.344.258.086.516.172.86.258.258.086.602.086.946.086.688 0 1.204-.086 1.634-.344.43-.258.602-.602.602-1.118a1.62 1.62 0 0 0-.172-.688.88.88 0 0 0-.516-.43c-.258-.172-.516-.258-.774-.344a22.635 22.635 0 0 0-1.118-.258c-.43-.086-.86-.172-1.204-.344-.344-.086-.602-.258-.86-.43s-.43-.344-.516-.602c-.086-.258-.172-.516-.172-.86 0-.43.086-.774.258-1.032.172-.258.344-.602.602-.774a3.18 3.18 0 0 1 .946-.43 5.076 5.076 0 0 1 1.204-.172c.602 0 1.118.086 1.548.258.43.172.86.43 1.204.688zm2.064 4.042v-.774h3.526v.774zm11.094 2.15v.774h-5.762v-8.514h5.676v.774h-4.816v3.096h4.214v.688h-4.214v3.268zm6.364-6.192a3.82 3.82 0 0 0-.946-.688 3.565 3.565 0 0 0-1.376-.258c-.774 0-1.29.172-1.634.43-.344.258-.516.688-.516 1.204 0 .258.086.43.172.602s.258.344.43.43c.172.086.43.258.774.344l1.032.258c.43.086.86.172 1.204.344.344.086.688.258.946.43s.43.43.602.688c.172.258.172.602.172.946 0 .43-.086.774-.258 1.032-.172.258-.344.516-.602.688a3.18 3.18 0 0 1-.946.43 5.076 5.076 0 0 1-1.204.172c-1.29 0-2.494-.43-3.44-1.204l.43-.688c.172.172.344.344.516.43.172.172.43.258.688.344.258.086.516.172.86.258.258.086.602.086.946.086.688 0 1.204-.086 1.634-.344.43-.258.602-.602.602-1.118a1.62 1.62 0 0 0-.172-.688.88.88 0 0 0-.516-.43c-.258-.172-.516-.258-.774-.344a22.644 22.644 0 0 0-1.118-.258c-.43-.086-.86-.172-1.204-.344-.344-.086-.602-.258-.86-.43s-.43-.344-.516-.602c-.086-.258-.172-.516-.172-.86 0-.43.086-.774.258-1.032.172-.258.344-.602.602-.774a3.18 3.18 0 0 1 .946-.43 5.076 5.076 0 0 1 1.204-.172c.602 0 1.118.086 1.548.258.43.172.86.43 1.204.688zm11.61 5.676c-.774.86-1.72 1.29-2.752 1.29-.602 0-1.118-.086-1.634-.344a5.01 5.01 0 0 1-1.29-.946 7.427 7.427 0 0 1-.86-1.376c-.258-.516-.344-1.032-.344-1.634 0-.602.086-1.118.258-1.634.172-.516.43-.946.86-1.376.344-.43.774-.688 1.29-.946a3.373 3.373 0 0 1 1.548-.344c.43 0 .774.086 1.118.172.344.086.688.258.946.344.258.172.516.344.688.602l.516.774-.688.43a3.037 3.037 0 0 0-1.118-1.204c-.43-.258-.946-.344-1.548-.344-.516 0-.86.086-1.29.344-.43.258-.688.43-.946.774-.258.344-.516.688-.602 1.118a3.565 3.565 0 0 0 0 2.666c.172.43.43.774.688 1.118.258.344.602.602 1.032.774.43.172.774.258 1.29.258s.946-.086 1.376-.344c.43-.258.86-.602 1.29-1.118v-1.376h-1.892v-.688h2.58v4.214h-.688v-1.204zm6.536-9.804h-.86l-.688 1.118.516.172zm1.634 10.32l-4.902.086V71.58h4.214v-.688h-4.214v-3.096h4.816v-.774h-5.676v8.514h5.762v-.774zm2.408-6.278v6.966h-.86v-8.514h.688l5.676 7.138v-7.138h.86v8.514h-.774zM223 64.442h-.86l-.688 1.118.516.172zm1.634 10.32l-4.902.086V71.58h4.214v-.688h-4.214v-3.096h4.816v-.774h-5.676v8.514h5.762v-.774zm2.408-3.182h-.086v-3.956h2.752c.258 0 .516.086.688.172.172.086.344.258.516.43.086.172.258.344.344.602.086.258.172.516.172.774s0 .516-.086.774c-.086.172-.172.43-.344.602s-.344.344-.516.43a1.62 1.62 0 0 1-.688.172h-2.752zm.086 3.87v-3.182h2.494l1.978 3.182h.946l-2.064-3.268c.258-.086.516-.172.774-.344a2.01 2.01 0 0 0 .602-.602c.086-.258.258-.516.344-.774.086-.258.172-.516.172-.86 0-.258-.086-.602-.172-.946s-.258-.602-.516-.86c-.172-.258-.43-.43-.774-.602a2.29 2.29 0 0 0-1.032-.258h-3.612v8.514zm8.084-3.268l1.72-4.214 1.72 4.214zm-2.236 3.268h.86l1.118-2.666h3.87l1.118 2.666h.86l-3.526-8.514h-.688zm9.117 0v-8.514h.86v7.826h4.902v.774h-5.762zm7.052 0v-8.514h.86v8.514zm7.998-6.88a3.82 3.82 0 0 0-.946-.688 3.565 3.565 0 0 0-1.376-.258c-.774 0-1.29.172-1.634.43-.344.258-.516.688-.516 1.204 0 .258.086.43.172.602s.258.344.43.43c.172.086.43.258.774.344l1.032.258c.43.086.86.172 1.204.344.344.086.688.258.946.43s.43.43.602.688c.172.258.172.602.172.946 0 .43-.086.774-.258 1.032-.172.258-.344.516-.602.688a3.18 3.18 0 0 1-.946.43 5.076 5.076 0 0 1-1.204.172c-1.29 0-2.494-.43-3.44-1.204l.43-.688c.172.172.344.344.516.43.172.172.43.258.688.344.258.086.516.172.86.258.258.086.602.086.946.086.688 0 1.204-.086 1.634-.344.43-.258.602-.602.602-1.118a1.62 1.62 0 0 0-.172-.688.881.881 0 0 0-.516-.43c-.258-.172-.516-.258-.774-.344-.258-.086-.688-.172-1.118-.258-.43-.086-.86-.172-1.204-.344-.344-.086-.602-.258-.86-.43s-.43-.344-.516-.602c-.086-.258-.172-.516-.172-.86 0-.43.086-.774.258-1.032.172-.344.344-.602.602-.774a3.18 3.18 0 0 1 .946-.43 5.076 5.076 0 0 1 1.204-.172c.602 0 1.118.086 1.548.258.43.172.86.43 1.204.688zm8.256-.86h-3.01v7.826h-.86V67.71h-3.01v-.774h6.966v.774zm7.051 7.052v.774h-5.761v-8.514h5.676v.774h-4.816v3.096h4.214v.688h-4.214v3.268zm6.365-6.192a3.819 3.819 0 0 0-.946-.688 3.565 3.565 0 0 0-1.376-.258c-.774 0-1.29.172-1.634.43-.344.258-.516.688-.516 1.204 0 .258.086.43.172.602s.258.344.43.43c.172.086.43.258.774.344l1.032.258c.43.086.86.172 1.204.344.344.086.688.258.946.43s.43.43.602.688c.172.258.172.602.172.946 0 .43-.086.774-.258 1.032-.172.258-.344.516-.602.688a3.179 3.179 0 0 1-.946.43 5.076 5.076 0 0 1-1.204.172c-1.29 0-2.494-.43-3.44-1.204l.43-.688c.172.172.344.344.516.43.172.172.43.258.688.344.258.086.516.172.86.258.258.086.602.086.946.086.688 0 1.204-.086 1.634-.344.43-.258.602-.602.602-1.118a1.62 1.62 0 0 0-.172-.688.88.88 0 0 0-.516-.43c-.258-.172-.516-.258-.774-.344-.258-.086-.688-.172-1.118-.258-.43-.086-.86-.172-1.204-.344-.344-.086-.602-.258-.86-.43s-.43-.344-.516-.602c-.086-.258-.172-.516-.172-.86 0-.43.086-.774.258-1.032.172-.344.344-.602.602-.774a3.18 3.18 0 0 1 .946-.43 5.077 5.077 0 0 1 1.204-.172c.602 0 1.118.086 1.548.258.43.172.86.43 1.204.688z"/></svg>